<svg width="127" height="36" viewBox="0 0 127 36" fill="none" xmlns="http://www.w3.org/2000/svg">
<path d="M126.259 34.7871C126.244 34.8175 126.221 34.8468 126.216 34.8787C126.128 35.4825 125.47 35.9861 124.881 35.9995C124.283 36.0128 123.832 35.7814 123.507 35.2864C123.296 34.9652 122.994 34.8065 122.612 34.7996C122.528 34.7981 122.444 34.7985 122.361 34.7985C96.9929 34.7985 71.6246 34.7985 46.2565 34.7985C36.1344 34.7985 26.0121 34.799 15.89 34.7975C15.7237 34.7975 15.5539 34.7923 15.3921 34.7586C15.0815 34.6941 14.8376 34.5174 14.6366 34.2703C13.5696 32.9579 12.4988 31.6486 11.4295 30.3382C10.7386 29.4916 10.0439 28.648 9.35891 27.7965C9.15381 27.5415 8.90256 27.4212 8.58051 27.4339C8.49717 27.4373 8.41342 27.4368 8.32988 27.4341C8.15215 27.4285 8.00302 27.4845 7.88711 27.624C7.74405 27.7963 7.5496 27.8621 7.33427 27.8779C7.27182 27.8825 7.20896 27.88 7.1463 27.88C5.06486 27.8802 2.98321 27.8805 0.901772 27.8792C0.797972 27.8792 0.693335 27.8704 0.590579 27.8552C0.22404 27.8011 -0.0100854 27.483 0.0034901 27.1292C0.0183187 26.7416 0.315937 26.465 0.691248 26.4475C0.739911 26.4452 0.788783 26.4469 0.837446 26.4469C2.97465 26.4469 5.11186 26.4488 7.24906 26.4444C7.51702 26.4437 7.74091 26.5152 7.91489 26.7236C8.00073 26.8266 8.11392 26.8727 8.24571 26.8746C8.38481 26.8767 8.52411 26.8775 8.66342 26.8777C9.11663 26.878 9.48234 27.0526 9.77014 27.4068C10.687 28.5363 11.6087 29.6618 12.5285 30.7887C13.3735 31.824 14.2219 32.8566 15.0617 33.8963C15.253 34.1329 15.489 34.2413 15.7843 34.2447C15.861 34.2455 15.9374 34.2449 16.014 34.2449C51.5113 34.2449 87.0086 34.2449 122.506 34.2449C122.569 34.2449 122.631 34.2467 122.694 34.2438C123.045 34.2277 123.319 34.0878 123.499 33.771C123.712 33.394 124.039 33.1605 124.461 33.0627C125.153 32.9023 125.889 33.2791 126.157 33.932C126.198 34.0331 126.226 34.1398 126.259 34.244C126.259 34.4251 126.259 34.606 126.259 34.7871ZM123.901 34.5101C123.888 34.9324 124.206 35.4009 124.779 35.4061C125.349 35.4111 125.669 34.9635 125.679 34.5262C125.691 34.0435 125.283 33.6363 124.796 33.6313C124.303 33.626 123.903 34.0191 123.901 34.5101Z" fill="#284D8A"/>
<path d="M67.3069 32.5389C84.1613 32.5389 101.016 32.5389 117.87 32.5389C117.926 32.5389 117.982 32.5402 118.037 32.5385C118.355 32.5287 118.593 32.3395 118.664 32.0275C118.715 31.7998 118.8 31.5899 118.939 31.4022C119.313 30.8959 119.989 30.6852 120.6 30.884C121.203 31.0803 121.613 31.6396 121.615 32.2702C121.617 32.8838 121.351 33.348 120.804 33.6221C120.251 33.8988 119.699 33.8526 119.216 33.4669C118.879 33.1985 118.519 33.0983 118.097 33.0985C91.1136 33.1024 64.1298 33.102 37.1463 33.1022C30.3308 33.1022 23.5152 33.1003 16.6997 33.1062C16.1704 33.1066 15.7688 32.9161 15.4365 32.5059C13.3774 29.9638 11.3102 27.4283 9.24525 24.8907C9.19701 24.8314 9.14939 24.7708 9.09551 24.7167C8.95725 24.5787 8.79162 24.4985 8.59259 24.4979C8.48816 24.4974 8.38352 24.501 8.2793 24.497C8.13039 24.4914 8.0057 24.5398 7.9088 24.653C7.73795 24.8523 7.52263 24.9254 7.26093 24.9247C5.10284 24.9199 2.94475 24.9214 0.786453 24.9233C0.622085 24.9235 0.468576 24.898 0.328434 24.8095C0.0911761 24.6595 -0.0255735 24.37 0.012438 24.1288C0.0629807 23.808 0.288125 23.5728 0.588666 23.5179C0.690587 23.4993 0.796268 23.4956 0.900277 23.4956C3.00281 23.4943 5.10514 23.496 7.20767 23.4928C7.4938 23.4924 7.7413 23.5559 7.93073 23.7894C8.02388 23.9043 8.16172 23.935 8.3075 23.9354C8.46748 23.9358 8.62997 23.926 8.78661 23.9504C9.12308 24.0031 9.39563 24.1758 9.61012 24.4408C9.90774 24.8088 10.2102 25.1731 10.5046 25.5436C10.8764 26.011 11.3538 26.2422 11.9539 26.2338C12.5316 26.2257 13.1095 26.2364 13.6874 26.2307C14.1738 26.2259 14.5598 26.4097 14.8632 26.7925C15.3258 27.3763 15.807 27.9452 16.2661 28.5315C16.5648 28.9126 16.915 29.0281 17.3858 28.889C18.2711 28.6273 19.1243 29.167 19.2978 30.0738C19.3135 30.1553 19.3124 30.2397 19.3195 30.3228C19.335 30.5055 19.4273 30.6008 19.6092 30.6156C19.6784 30.6212 19.7483 30.6179 19.8181 30.6179C21.3985 30.6181 22.9787 30.6181 24.5591 30.6181C24.6217 30.6181 24.685 30.6139 24.7468 30.621C24.883 30.6367 24.9795 30.7344 24.9947 30.8637C25.0098 30.9909 24.9373 31.1146 24.8066 31.1532C24.7285 31.1764 24.6424 31.1795 24.5599 31.1797C22.9448 31.1812 21.3296 31.1854 19.7145 31.1776C19.3477 31.1758 19.038 31.2816 18.7536 31.511C18.2481 31.9187 17.5589 31.9537 17.0157 31.6179C16.4664 31.2783 16.1899 30.6365 16.343 29.993C16.4056 29.7294 16.3572 29.5264 16.1857 29.3197C15.5992 28.6125 15.0199 27.899 14.4491 27.1793C14.2369 26.9118 13.9835 26.7846 13.6408 26.7919C13.0771 26.804 12.513 26.7952 11.9491 26.7952C11.9213 26.7952 11.8919 26.7896 11.8657 26.7965C11.8023 26.8136 11.7179 26.8182 11.683 26.8615C11.6245 26.9337 11.6934 27.0012 11.7421 27.0611C12.3835 27.8495 13.0243 28.6382 13.6654 29.4266C14.4033 30.3339 15.1462 31.237 15.8766 32.1501C16.0946 32.4226 16.3501 32.544 16.702 32.5438C33.5703 32.5383 50.4386 32.5389 67.3069 32.5389ZM17.8028 29.4331C17.3131 29.4366 16.8977 29.8556 16.9033 30.3403C16.909 30.8249 17.3338 31.2415 17.8175 31.237C18.306 31.2324 18.7143 30.8165 18.7124 30.3253C18.7105 29.8337 18.2983 29.4293 17.8028 29.4331ZM120.142 33.1831C120.631 33.1799 121.029 32.7739 121.02 32.2867C121.011 31.7975 120.602 31.3965 120.12 31.4045C119.639 31.4124 119.232 31.8297 119.239 32.3084C119.246 32.7965 119.648 33.1862 120.142 33.1831Z" fill="#284D8A"/>
<path d="M88.3779 24.9895C88.3476 25.0478 88.3152 25.105 88.2876 25.1645C88.173 25.4124 88.0331 25.6424 87.842 25.8408C87.4029 26.2961 86.8511 26.4377 86.2436 26.4105C85.0563 26.3577 84.2547 25.559 84.0533 24.374C83.898 23.4596 83.9644 22.5522 84.3353 21.6908C84.6801 20.8907 85.224 20.2642 86.0377 19.9081C86.5427 19.6871 87.0721 19.6464 87.6114 19.751C88.0272 19.8316 88.3374 20.0551 88.514 20.4486C88.5251 20.4732 88.5416 20.4956 88.5569 20.5181C88.5602 20.5229 88.5692 20.524 88.6032 20.5388C88.6556 20.3153 88.6506 20.0877 88.6928 19.8726C88.8559 19.8237 90.1828 19.8168 90.414 19.8655C90.4096 19.9638 90.4096 20.0662 90.3998 20.1679C90.319 21.0194 90.2308 21.87 90.1567 22.7222C90.1183 23.1654 90.0911 23.6104 90.0842 24.0551C90.0811 24.2602 90.1164 24.4726 90.1732 24.6706C90.2705 25.0106 90.5186 25.1405 90.8647 25.0726C91.1166 25.0231 91.3098 24.8832 91.4702 24.6915C91.6878 24.431 91.8323 24.1294 91.9267 23.8072C92.1817 22.9367 92.2396 22.0501 92.0293 21.1672C91.706 19.8101 90.8664 18.8815 89.5462 18.4425C88.2219 18.0021 86.8724 18.0033 85.5882 18.5699C83.8117 19.3538 82.7691 20.7351 82.511 22.676C82.4097 23.4367 82.4581 24.1935 82.6954 24.9254C83.1469 26.3188 84.1191 27.1843 85.4992 27.61C86.3762 27.8804 87.2774 27.9105 88.1857 27.837C88.9892 27.7718 89.7647 27.5935 90.5094 27.2833C90.5403 27.2704 90.5748 27.2662 90.6233 27.2539C90.631 27.3178 90.6425 27.3704 90.6427 27.4233C90.6444 27.7783 90.6379 28.1334 90.6467 28.4882C90.6498 28.6177 90.5969 28.6716 90.4823 28.7121C89.9422 28.9034 89.3864 29.0256 88.8192 29.0966C88.1619 29.1789 87.5017 29.2046 86.8403 29.1818C85.5159 29.1363 84.2647 28.8355 83.1467 28.0929C81.7129 27.1405 80.9067 25.8067 80.7303 24.0929C80.6254 23.0758 80.6858 22.0703 81.05 21.1109C81.8234 19.0743 83.2827 17.7567 85.3618 17.1339C86.3246 16.8454 87.3161 16.7934 88.3173 16.8644C89.1642 16.9244 89.9858 17.0856 90.7647 17.4271C91.8104 17.8855 92.6734 18.5647 93.2634 19.5591C93.6283 20.1739 93.8183 20.8435 93.8843 21.5534C93.9553 22.3178 93.9031 23.0707 93.6648 23.8011C93.3152 24.8725 92.6473 25.6798 91.6049 26.138C90.9658 26.4191 90.2906 26.5056 89.6051 26.3376C89.0477 26.2011 88.6513 25.8654 88.4823 25.2984C88.4531 25.2004 88.4387 25.0981 88.4173 24.9978C88.404 24.9947 88.3908 24.992 88.3779 24.9895ZM88.4702 22.3602C88.4606 22.2625 88.4595 22.0722 88.4209 21.8901C88.2043 20.868 87.1738 20.7886 86.6333 21.2629C86.499 21.3807 86.3768 21.5215 86.2812 21.672C85.8549 22.3446 85.7292 23.0904 85.7872 23.8721C85.8048 24.1083 85.8647 24.3391 85.9838 24.5488C86.1584 24.8562 86.4038 25.0697 86.7689 25.101C87.1778 25.1361 87.5191 24.9893 87.7922 24.6848C87.9859 24.4692 88.1153 24.2161 88.2141 23.9463C88.3912 23.4634 88.4472 22.9601 88.4702 22.3602Z" fill="#284D8A"/>
<path d="M33.8762 23.5473C33.1241 23.5473 32.4027 23.5473 31.687 23.5473C31.641 23.3636 31.6356 21.868 31.6776 21.6453C33.2427 21.6453 34.811 21.6453 36.3908 21.6453C36.3908 23.4521 36.3908 25.2458 36.3908 27.0613C36.2778 27.119 36.1569 27.1864 36.0315 27.2441C35.2594 27.5991 34.4457 27.7994 33.6028 27.8894C32.9234 27.9619 32.2431 27.9876 31.5608 27.9295C30.5633 27.8445 29.6135 27.6048 28.7582 27.0632C27.7262 26.4097 27.0335 25.4972 26.7148 24.3166C26.3883 23.1075 26.3741 21.8884 26.7524 20.6923C27.3102 18.9287 28.5216 17.7857 30.2467 17.171C30.9604 16.9169 31.7043 16.8151 32.4593 16.7957C33.4729 16.7698 34.4743 16.8596 35.4551 17.1299C35.5888 17.1666 35.7199 17.2126 35.8465 17.2525C35.8908 17.4254 35.8966 19.2589 35.8534 19.4833C35.8087 19.4686 35.7636 19.4597 35.7237 19.4398C34.8985 19.0315 34.019 18.8552 33.1053 18.8149C32.5951 18.7924 32.0869 18.8011 31.5955 18.9496C30.2937 19.3431 29.4913 20.2088 29.2175 21.5419C29.0552 22.3324 29.0848 23.1257 29.3505 23.8903C29.7663 25.0864 30.6389 25.733 31.8797 25.9016C32.4299 25.9763 32.9768 25.9525 33.5161 25.8159C33.8925 25.7205 33.8912 25.7169 33.8912 25.3301C33.891 24.8289 33.8918 24.3276 33.8908 23.8264C33.8908 23.7449 33.8824 23.6633 33.8762 23.5473Z" fill="#284D8A"/>
<path d="M62.3944 29.0043C62.6006 29.0989 62.7749 29.1827 62.9525 29.2595C63.6736 29.5726 64.4272 29.7131 65.2119 29.653C65.8292 29.6056 66.3986 29.4285 66.858 28.9826C67.2292 28.6225 67.4309 28.1795 67.4869 27.6743C67.5191 27.385 67.5078 27.0908 67.5138 26.7986C67.5145 26.7666 67.4994 26.7343 67.4844 26.6718C67.4284 26.7384 67.3881 26.7823 67.3524 26.8297C66.8509 27.4962 66.1843 27.8579 65.3545 27.9387C64.8267 27.9901 64.3094 27.9523 63.8096 27.7817C62.8445 27.4519 62.2419 26.7574 61.8994 25.8195C61.6212 25.0578 61.6006 24.2666 61.6682 23.4707C61.7188 22.8771 61.856 22.3028 62.1373 21.7725C62.7881 20.5463 63.8019 19.9041 65.1987 19.8813C65.5421 19.8757 65.8787 19.9077 66.2081 20.01C66.6605 20.1505 67.0314 20.4087 67.3286 20.7754C67.3679 20.8239 67.408 20.8719 67.4485 20.9196C67.452 20.9237 67.4614 20.9231 67.4823 20.9279C67.5473 20.8009 67.5084 20.6622 67.5151 20.5302C67.5222 20.3926 67.5168 20.2541 67.5168 20.095C67.6032 20.0846 67.6694 20.0699 67.7356 20.0699C68.4109 20.0683 69.0861 20.0683 69.7613 20.0693C69.8156 20.0693 69.8701 20.08 69.9457 20.0879C69.9533 20.1666 69.9662 20.2401 69.9662 20.3135C69.9673 22.5758 69.9723 24.8381 69.9639 27.1002C69.9612 27.8243 69.8183 28.5241 69.4825 29.1747C68.9783 30.1509 68.169 30.7562 67.1412 31.0939C66.6225 31.2643 66.0865 31.3524 65.5439 31.3815C64.7503 31.4241 63.9571 31.4082 63.1774 31.2265C62.9748 31.1793 62.7756 31.1148 62.579 31.0461C62.3802 30.9765 62.3804 30.97 62.38 30.7626C62.3787 30.2405 62.3794 29.7186 62.3802 29.1964C62.3796 29.143 62.3877 29.0887 62.3944 29.0043ZM67.5636 23.8113C67.541 23.5421 67.5462 23.2669 67.4911 23.0045C67.2559 21.8851 66.054 21.3331 65.0786 21.8888C64.6494 22.1334 64.4063 22.5252 64.2714 22.986C64.1066 23.5486 64.0843 24.1234 64.1903 24.6986C64.2689 25.1248 64.4533 25.5004 64.7818 25.7978C65.3299 26.294 66.5832 26.3899 67.1981 25.3943C67.3096 25.2138 67.386 25.0077 67.4524 24.8047C67.5577 24.4834 67.5491 24.147 67.5636 23.8113Z" fill="#284D8A"/>
<path d="M95.8784 16.9778C98.0355 16.9778 100.169 16.9778 102.299 16.9778C102.353 17.1652 102.354 18.7341 102.296 18.9423C101.006 18.9423 99.709 18.9423 98.3978 18.9423C98.3978 19.7525 98.3978 20.5357 98.3978 21.3439C98.4908 21.3506 98.5843 21.3634 98.6779 21.3634C99.708 21.3646 100.738 21.3638 101.768 21.3646C101.857 21.3646 101.945 21.3736 102.046 21.3792C102.046 22.0208 102.046 22.6438 102.046 23.2911C101.956 23.2984 101.869 23.3118 101.783 23.3118C100.746 23.313 99.7086 23.3122 98.6714 23.313C98.5829 23.313 98.4941 23.3214 98.3951 23.3264C98.3951 24.1566 98.3951 24.968 98.3951 25.8067C98.8617 25.8216 99.3187 25.8118 99.775 25.8134C100.241 25.8153 100.708 25.8138 101.174 25.8138C101.632 25.8138 102.09 25.8138 102.541 25.8138C102.6 25.9914 102.609 27.5223 102.559 27.7368C102.396 27.7781 96.0906 27.7829 95.8786 27.7391C95.8784 24.1612 95.8784 20.5804 95.8784 16.9778Z" fill="#284D8A"/>
<path d="M110.653 23.3151C109.448 23.3151 108.248 23.3151 107.054 23.3151C107.003 23.5453 107.005 25.6161 107.055 25.8095C108.427 25.8095 109.804 25.8095 111.174 25.8095C111.229 25.9676 111.246 27.4137 111.203 27.7313C111.057 27.7762 104.837 27.7931 104.536 27.7495C104.497 27.5977 104.488 17.2232 104.529 16.9789C106.666 16.9789 108.805 16.9789 110.957 16.9789C110.957 17.6297 110.957 18.2669 110.957 18.9354C110.742 18.9375 110.53 18.9404 110.317 18.9413C110.102 18.9423 109.886 18.9415 109.67 18.9415C109.448 18.9415 109.225 18.9415 109.002 18.9415C108.786 18.9415 108.571 18.9415 108.355 18.9415C108.139 18.9415 107.923 18.9415 107.708 18.9415C107.493 18.9415 107.278 18.9415 107.069 18.9415C107.007 19.1059 106.985 20.9218 107.037 21.3485C107.118 21.3535 107.206 21.3636 107.292 21.3638C108.322 21.3648 109.352 21.3642 110.382 21.365C110.472 21.365 110.561 21.3723 110.643 21.3761C110.703 21.5424 110.714 23.0492 110.653 23.3151Z" fill="#284D8A"/>
<path d="M113.164 16.9772C115.315 16.9772 117.449 16.9772 119.596 16.9772C119.596 17.6311 119.596 18.2734 119.596 18.9384C118.286 18.9384 116.987 18.9384 115.697 18.9384C115.64 19.1059 115.625 21.0618 115.675 21.349C115.758 21.3538 115.846 21.3636 115.934 21.3636C116.964 21.3646 117.994 21.3644 119.024 21.3644C119.113 21.3644 119.201 21.3644 119.283 21.3644C119.334 21.548 119.341 23.063 119.294 23.2963C119.212 23.3015 119.124 23.3118 119.036 23.3118C118.006 23.3128 116.976 23.312 115.947 23.313C115.858 23.313 115.769 23.322 115.686 23.3266C115.632 23.5334 115.636 25.625 115.693 25.812C117.068 25.812 118.449 25.812 119.846 25.812C119.846 26.4694 119.846 27.1048 119.846 27.7545C117.62 27.7545 115.403 27.7545 113.186 27.7545C113.181 27.7491 113.176 27.7443 113.171 27.7393C113.166 27.7343 113.159 27.7292 113.158 27.7234C113.153 27.6891 113.146 27.6547 113.146 27.6204C113.145 24.106 113.146 20.5919 113.147 17.0775C113.147 17.0503 113.156 17.0236 113.164 16.9772Z" fill="#284D8A"/>
<path d="M42.8316 22.7545C42.9018 22.2305 42.5933 21.7614 42.1771 21.6046C41.8976 21.4993 41.6092 21.4707 41.3158 21.4774C40.4488 21.4972 39.6447 21.7401 38.8956 22.1723C38.8536 22.1965 38.8116 22.2213 38.7684 22.2433C38.7575 22.2487 38.7416 22.2441 38.7128 22.2441C38.707 22.1927 38.6959 22.1405 38.6957 22.0881C38.6944 21.6286 38.7009 21.1691 38.6917 20.7099C38.6888 20.5587 38.7471 20.486 38.882 20.4335C39.5474 20.1748 40.2381 20.02 40.9436 19.9294C41.4632 19.8625 41.9845 19.8582 42.505 19.9252C42.9001 19.9762 43.284 20.0695 43.6451 20.2433C44.4083 20.6104 44.8586 21.2289 45.0375 22.0407C45.1148 22.3913 45.1585 22.7562 45.1618 23.1152C45.1754 24.5839 45.1672 26.0526 45.1672 27.5212C45.1672 27.5956 45.1672 27.6697 45.1672 27.7562C44.3838 27.7562 43.629 27.7562 42.8452 27.7562C42.8452 27.4015 42.8452 27.0586 42.8452 26.6998C42.732 26.7169 42.7115 26.7921 42.675 26.8431C42.2619 27.418 41.7132 27.7829 41.014 27.9059C40.421 28.0104 39.8321 27.9893 39.2686 27.7624C38.4398 27.4291 38.0021 26.7973 37.9208 25.9149C37.8901 25.5812 37.9018 25.247 37.9831 24.9197C38.1583 24.2155 38.5996 23.7353 39.2458 23.4289C39.665 23.2303 40.1096 23.1213 40.5666 23.0609C41.256 22.9699 41.9463 22.8857 42.6359 22.7971C42.7036 22.7882 42.7694 22.7683 42.8316 22.7545ZM42.8252 24.1301C42.7805 24.1301 42.7328 24.125 42.6865 24.1309C42.2101 24.1894 41.732 24.2374 41.2587 24.3151C41.0497 24.3494 40.8381 24.4202 40.6495 24.5173C40.283 24.7061 40.1324 25.0369 40.1685 25.4381C40.2047 25.8397 40.4402 26.1106 40.8197 26.2232C41.2957 26.3644 41.761 26.3122 42.176 26.0229C42.7353 25.6328 42.9515 25.0039 42.8252 24.1301Z" fill="#284D8A"/>
<path d="M57.7653 22.7541C57.7852 22.0114 57.3731 21.5559 56.6407 21.4952C55.7877 21.4244 54.9811 21.6023 54.2127 21.9676C54.0254 22.0566 53.8445 22.1591 53.6597 22.256C53.6131 22.1061 53.5975 20.9156 53.6376 20.5127C53.7664 20.4594 53.9032 20.3932 54.0463 20.3454C54.9767 20.0349 55.9289 19.8531 56.9145 19.8828C57.291 19.8941 57.6622 19.9442 58.0264 20.0434C59.1235 20.3423 59.7714 21.0614 59.9913 22.1662C60.0494 22.4578 60.0807 22.7594 60.0826 23.0566C60.0916 24.5528 60.0868 26.0492 60.0868 27.5455C60.0868 27.6073 60.0868 27.6689 60.0868 27.7259C59.923 27.7771 58.04 27.789 57.7666 27.7409C57.7666 27.4024 57.7666 27.0584 57.7666 26.7013C57.6565 26.7134 57.6371 26.789 57.6001 26.8402C57.1866 27.4133 56.6407 27.7804 55.9408 27.9051C55.3909 28.0031 54.846 27.9822 54.3126 27.8078C53.4625 27.5298 52.9034 26.8136 52.8404 25.9195C52.8182 25.6067 52.8232 25.2936 52.8917 24.9849C53.0526 24.2606 53.4872 23.7583 54.1467 23.4398C54.577 23.232 55.0352 23.12 55.5066 23.0588C56.196 22.9693 56.8861 22.884 57.5757 22.7955C57.6369 22.7873 57.6966 22.7694 57.7653 22.7541ZM57.7739 24.1288C57.7058 24.1288 57.6645 24.1244 57.6244 24.1294C57.1413 24.1894 56.6561 24.2374 56.1764 24.3176C55.9611 24.3535 55.743 24.4291 55.55 24.5317C55.2015 24.7165 55.0626 25.0405 55.0916 25.4235C55.1229 25.8356 55.3616 26.1108 55.7497 26.2255C56.3777 26.411 57.153 26.2361 57.564 25.5133C57.8075 25.0845 57.7935 24.6219 57.7739 24.1288Z" fill="#284D8A"/>
<path d="M74.0385 24.5874C74.0838 25.1413 74.2613 25.5837 74.6951 25.8953C75.0335 26.1384 75.423 26.2386 75.8298 26.2716C76.7511 26.3464 77.6333 26.2082 78.4553 25.7641C78.4781 25.7518 78.505 25.7468 78.5514 25.7313C78.5595 25.8049 78.5714 25.8638 78.5717 25.9227C78.5731 26.3544 78.5671 26.7861 78.575 27.2175C78.5775 27.3602 78.519 27.4266 78.3941 27.4809C77.9181 27.6883 77.4211 27.8163 76.9088 27.8821C76.2933 27.9611 75.6757 27.9916 75.0556 27.9302C74.4681 27.8721 73.9038 27.7345 73.3833 27.4477C72.6655 27.0523 72.1496 26.4742 71.8787 25.7002C71.4909 24.5918 71.4725 23.4634 71.8837 22.3663C72.4165 20.9448 73.4906 20.1549 74.9802 19.9237C75.5424 19.8364 76.1068 19.8596 76.6611 19.9833C77.9664 20.2744 78.7807 21.0841 79.1343 22.3671C79.2517 22.7934 79.2726 23.2311 79.2807 23.6695C79.2864 23.9674 79.2818 24.2654 79.2818 24.5877C78.3931 24.5877 77.5251 24.5877 76.6571 24.5877C75.7949 24.5874 74.9334 24.5874 74.0385 24.5874ZM76.971 23.1334C77.013 22.8761 76.9716 22.5472 76.8697 22.2765C76.7688 22.0083 76.6122 21.7842 76.3572 21.6422C75.9432 21.4114 75.2507 21.3475 74.749 21.7604C74.3559 22.0839 74.1379 22.5075 74.0414 22.9999C74.0339 23.0386 74.0404 23.0799 74.0404 23.1334C75.0234 23.1334 75.9927 23.1334 76.971 23.1334Z" fill="#284D8A"/>
<path d="M22.2906 4.10742C22.2906 5.20014 22.2869 6.29287 22.2933 7.38559C22.2948 7.64603 22.228 7.8624 22.026 8.03429C21.9199 8.12452 21.8748 8.24899 21.8738 8.38746C21.8723 8.57543 21.87 8.7634 21.8742 8.95116C21.879 9.17255 21.9744 9.34798 22.1421 9.49397C23.0605 10.2939 23.9765 11.0965 24.8923 11.8993C25.4993 12.4315 26.1074 12.9624 26.7091 13.5004C26.8535 13.6295 26.9825 13.7784 27.1022 13.9311C27.1734 14.0217 27.2269 14.1328 27.2637 14.2429C27.3382 14.467 27.2505 14.685 27.0379 14.7876C26.9216 14.8436 26.7891 14.8772 26.6603 14.8933C26.4884 14.9148 26.3132 14.9148 26.1394 14.915C24.4132 14.9162 22.6872 14.9158 20.9611 14.9158C20.8915 14.9158 20.8218 14.9144 20.7522 14.9177C20.5062 14.9292 20.3804 15.0198 20.3105 15.254C20.1906 15.6541 19.9533 15.9551 19.5866 16.1566C19.3861 16.2667 19.2405 16.4327 19.2332 16.6656C19.2102 17.4022 19.1701 18.141 19.2696 18.8747C19.3518 19.4814 19.6058 20.0198 19.9884 20.4954C20.9784 21.7264 21.97 22.9559 22.9652 24.1827C23.0826 24.3274 23.2136 24.4663 23.3593 24.5816C23.602 24.7737 23.8946 24.8397 24.2004 24.8456C24.3675 24.8487 24.5346 24.8427 24.7014 24.8477C24.8788 24.8529 24.9892 24.954 24.9965 25.1065C25.0036 25.2552 24.8953 25.3901 24.7267 25.3911C24.4007 25.393 24.0699 25.4022 23.7497 25.3525C23.2697 25.2779 22.8953 25.0041 22.5922 24.6265C21.8428 23.6931 21.0899 22.7627 20.3385 21.8312C20.0851 21.5171 19.8316 21.203 19.578 20.8888C18.965 20.1297 18.6597 19.2617 18.6591 18.2861C18.6589 17.8197 18.6518 17.3534 18.6614 16.8872C18.6685 16.5393 18.5325 16.3005 18.2261 16.1218C17.2625 15.5597 17.2744 14.1871 18.2378 13.6481C18.8147 13.3254 19.558 13.4363 19.9876 13.9449C20.2457 14.2504 20.5521 14.3657 20.9379 14.3645C22.6918 14.3588 24.4458 14.3622 26.1998 14.3611C26.2896 14.3611 26.3817 14.3582 26.469 14.3394C26.5976 14.3116 26.6246 14.2287 26.5337 14.1299C26.4161 14.0021 26.2919 13.8793 26.1613 13.7646C24.7177 12.4979 23.276 11.2289 21.8249 9.97079C21.4719 9.66461 21.2938 9.3035 21.3176 8.83817C21.3253 8.6855 21.3186 8.53199 21.3159 8.3789C21.3134 8.24064 21.2689 8.11804 21.1603 8.02761C20.9546 7.85677 20.899 7.63267 20.8995 7.37557C20.9028 5.3572 20.9015 3.33883 20.9015 1.32026C20.9015 1.14628 20.9101 0.971678 20.8997 0.798329C20.8669 0.256561 21.2583 -0.00555 21.6093 8.90589e-05C22.0214 0.00677239 22.2906 0.323186 22.291 0.807937C22.2913 1.90797 22.2906 3.0078 22.2906 4.10742ZM18.9306 13.9582C18.4513 13.9493 17.9939 14.3383 17.9916 14.9027C17.9897 15.4056 18.4306 15.8312 18.932 15.8302C19.4467 15.8291 19.875 15.3951 19.8696 14.8803C19.8644 14.373 19.4396 13.9561 18.9306 13.9582Z" fill="#284D8A"/>
<path d="M4.03822 20.5507C5.11027 20.5507 6.18211 20.5547 7.25395 20.5478C7.5146 20.5461 7.73223 20.6144 7.90432 20.8135C8.00645 20.9317 8.13552 20.977 8.293 20.9766C9.94274 20.9736 11.5925 20.9728 13.242 20.9766C13.4753 20.9772 13.6142 20.8711 13.7128 20.6685C13.9314 20.2191 14.2848 19.9373 14.7875 19.8724C15.3761 19.7965 15.8324 20.0223 16.1649 20.5079C16.1962 20.5536 16.2186 20.6059 16.2508 20.651C16.3919 20.8494 16.5789 20.9716 16.8282 20.9734C17.314 20.9774 17.6889 21.1794 17.9936 21.5595C19.3253 23.2213 20.6689 24.8736 22.0009 26.5352C22.2148 26.8019 22.4648 26.9302 22.8079 26.9224C23.3854 26.9093 23.9633 26.9178 24.541 26.9195C24.6239 26.9197 24.7094 26.922 24.7896 26.9408C24.9211 26.9715 25.0034 27.0912 24.9957 27.218C24.9871 27.3587 24.889 27.4586 24.7417 27.4736C24.7004 27.4778 24.6582 27.4761 24.6166 27.4761C23.9763 27.4763 23.3359 27.4732 22.6954 27.4772C22.2536 27.4799 21.9011 27.3065 21.6258 26.9655C20.3146 25.3408 19.003 23.7163 17.6914 22.0916C17.6127 21.9941 17.5371 21.8939 17.4531 21.8009C17.2349 21.5593 16.8769 21.4711 16.5736 21.5827C16.4022 21.6457 16.2877 21.7694 16.1994 21.9279C16.0112 22.266 15.7282 22.4885 15.3539 22.5933C14.7581 22.7602 14.1067 22.52 13.7999 21.9832C13.6148 21.6597 13.3656 21.5315 13.0004 21.5336C11.469 21.5428 9.93773 21.5396 8.40641 21.5348C8.18481 21.5342 7.99998 21.5772 7.85169 21.7587C7.74789 21.8857 7.59877 21.9523 7.43085 21.9636C7.34772 21.9693 7.26418 21.9749 7.18085 21.9749C5.07873 21.9755 2.97662 21.9759 0.874499 21.9749C0.777382 21.9749 0.678384 21.9734 0.583564 21.9559C0.188412 21.8824 0.00295102 21.5701 2.70632e-05 21.2441C-0.0033146 20.8792 0.303283 20.5741 0.654993 20.5516C0.717441 20.5476 0.780306 20.5501 0.842962 20.5501C1.90812 20.5507 2.97307 20.5507 4.03822 20.5507ZM14.9682 22.1441C15.4759 22.1472 15.874 21.7596 15.8792 21.2571C15.8842 20.7608 15.4799 20.3513 14.9832 20.3498C14.487 20.3483 14.0831 20.7539 14.0843 21.2527C14.0858 21.7481 14.4755 22.1411 14.9682 22.1441Z" fill="#284D8A"/>
<path d="M47.1602 27.7466C47.1602 25.1923 47.1602 22.6491 47.1602 20.1098C47.3502 20.0549 49.3901 20.0528 49.6023 20.1102C49.6023 20.3308 49.6023 20.5584 49.6023 20.7861C49.6023 21.0069 49.6023 21.2276 49.6023 21.4486C49.6148 21.4523 49.6271 21.4561 49.6397 21.4599C49.6635 21.4241 49.6898 21.3899 49.7107 21.3527C49.8233 21.1535 49.9174 20.9411 50.0497 20.7558C50.4413 20.2065 50.9966 19.9578 51.6595 19.9317C51.8888 19.9227 52.1181 19.9292 52.3508 20.0186C52.3508 20.7247 52.3508 21.4315 52.3508 22.1601C52.2873 22.1401 52.2305 22.1242 52.175 22.1044C51.7737 21.9607 51.3633 21.9141 50.9435 21.9985C50.4695 22.0937 50.1273 22.3703 49.8961 22.7875C49.6783 23.1808 49.6035 23.61 49.6029 24.054C49.601 25.1883 49.6023 26.3226 49.6023 27.4567C49.6023 27.5467 49.6023 27.6367 49.6023 27.7224C49.4488 27.7771 47.5133 27.7957 47.1602 27.7466Z" fill="#284D8A"/>
<path d="M28.0549 4.0859C28.0549 5.18531 28.0507 6.28472 28.058 7.38413C28.0597 7.64499 27.9968 7.8622 27.7928 8.03262C27.6973 8.1124 27.6476 8.22414 27.6435 8.34486C27.6361 8.56708 27.6307 8.79076 27.647 9.01215C27.6679 9.29494 27.802 9.52321 28.0186 9.71077C28.6604 10.2663 29.2967 10.8281 29.9354 11.3872C30.2861 11.6943 30.6405 11.9975 30.9872 12.3089C31.2961 12.5865 31.643 12.6773 32.0488 12.5796C32.8479 12.3874 33.5592 12.8356 33.8065 13.4962C34.1073 14.3001 33.6783 15.188 32.8661 15.4438C32.0469 15.7017 31.1881 15.2299 30.9718 14.4033C30.9126 14.1769 30.9133 13.9482 30.9525 13.7201C31.024 13.3033 30.8767 12.9695 30.5716 12.6957C30.3437 12.4912 30.1111 12.2924 29.8805 12.0911C29.1629 11.4641 28.4471 10.8348 27.7266 10.211C27.4411 9.9639 27.2069 9.68591 27.1288 9.30642C27.1011 9.17109 27.0912 9.03115 27.0848 8.89289C27.0772 8.73312 27.081 8.57293 27.0827 8.41295C27.0841 8.25108 27.0344 8.11512 26.9068 8.00756C26.7429 7.8693 26.6706 7.68551 26.6662 7.47331C26.6652 7.42465 26.6652 7.37598 26.6652 7.32711C26.665 5.15607 26.6652 2.98503 26.6646 0.813995C26.6646 0.645449 26.6733 0.480455 26.7669 0.33175C26.9333 0.0669232 27.2433 -0.0558827 27.5455 0.0253616C27.8508 0.107441 28.0459 0.359111 28.0547 0.683252C28.0564 0.745909 28.0553 0.808565 28.0553 0.871221C28.0549 1.94264 28.0549 3.01427 28.0549 4.0859ZM32.4187 14.9114C32.9068 14.9087 33.3051 14.505 33.3005 14.0173C33.2959 13.5272 32.8953 13.1328 32.4049 13.1362C31.9204 13.1395 31.5156 13.5485 31.5194 14.0313C31.5233 14.5155 31.9306 14.9142 32.4187 14.9114Z" fill="#284D8A"/>
<path d="M25.1732 4.16068C25.1732 5.27429 25.1751 6.3879 25.1719 7.50151C25.1709 7.85343 25.2599 8.16587 25.4681 8.45806C25.7502 8.85342 25.7722 9.29076 25.5529 9.72226C25.3346 10.1515 24.9568 10.3756 24.4858 10.3714C23.5082 10.3628 22.989 9.35279 23.4167 8.57147C23.4401 8.52886 23.4652 8.48667 23.4946 8.44804C23.7068 8.17089 23.7864 7.85635 23.7847 7.51028C23.7799 6.50799 23.783 5.5057 23.783 4.50341C23.783 3.28537 23.7826 2.06733 23.7835 0.849293C23.7835 0.759068 23.783 0.66759 23.7962 0.578827C23.8476 0.233382 24.1483 -0.00951582 24.5042 0.000926892C24.8388 0.010743 25.1322 0.278912 25.1669 0.611199C25.1755 0.693905 25.173 0.778074 25.173 0.861407C25.1732 1.96123 25.1732 3.06106 25.1732 4.16068Z" fill="#284D8A"/>
<path d="M22.7745 29.1754C22.197 29.1754 21.6195 29.1726 21.042 29.1764C20.5648 29.1795 20.1851 28.9978 19.8837 28.6238C18.8668 27.3617 17.8409 26.1067 16.823 24.8454C16.6293 24.6054 16.3981 24.488 16.0853 24.4941C15.4802 24.5056 14.8746 24.5039 14.2695 24.4945C14.0024 24.4903 13.8038 24.5841 13.6436 24.7967C13.1254 25.4843 12.121 25.4734 11.6003 24.8782C11.2426 24.4692 11.168 23.8861 11.4174 23.3978C11.6605 22.9212 12.1734 22.6386 12.7089 22.6865C13.2438 22.7341 13.6943 23.1019 13.8503 23.6177C13.8585 23.6445 13.8668 23.671 13.875 23.6975C13.933 23.8874 13.9865 23.9319 14.1872 23.9333C14.5838 23.9362 14.9804 23.9344 15.3771 23.9344C15.6275 23.9344 15.8781 23.9392 16.1285 23.9333C16.5863 23.9227 16.9495 24.1044 17.2348 24.4567C17.839 25.2027 18.4445 25.9477 19.0495 26.6931C19.4748 27.2169 19.904 27.7378 20.3238 28.266C20.5167 28.5089 20.7559 28.6165 21.0644 28.615C22.2262 28.6096 23.3883 28.6127 24.5501 28.6129C24.6128 28.6129 24.6761 28.6089 24.7377 28.6167C24.8904 28.6357 24.9967 28.7535 24.9963 28.8951C24.9958 29.0408 24.8954 29.1507 24.7366 29.172C24.6819 29.1793 24.6255 29.1754 24.5698 29.1754C23.9712 29.1754 23.3728 29.1754 22.7745 29.1754Z" fill="#284D8A"/>
</svg>
